{"title":"The Lego Movie 2014 Webrip x264 AC3 TiTAN","uid":10070272,"size":1502080724,"categoryP":"video","categoryS":"movies","magnet":"?xt=urn:btih:f0833de436dc1cc93508019a59ee8f32bbd0786b&amp;dn=The+Lego+Movie+2014+Webrip+x264+AC3+TiTAN&amp;tr=udp%3A%2F%2Ftracker.openbittorrent.com%3A80&amp;tr=udp%3A%2F%2Fopen.demonii.com%3A1337&amp;tr=udp%3A%2F%2Ftracker.coppersurfer.tk%3A6969&amp;tr=udp%3A%2F%2Fexodus.desync.com%3A6969","seeders":8,"leechers":0,"uploader":"xxxlavalxxx","files":-1,"time":1398839684,"description":" &lt;a href=&quot;\nhttp://www.imdb.com/title/tt1490017/&quot; rel=&quot;nofollow&quot; target=&quot;_NEW&quot;&gt;\nhttp://www.imdb.com/title/tt1490017/&lt;/a&gt;\n\n\nAn ordinary LEGO minifigure, mistakenly thought to be the extraordinary MasterBuilder, is recruited to join a quest to stop an evil LEGO tyrant from gluing the universe together.\n\nDirectors: Phil Lord, Christopher Miller\nWriters: Dan Hageman (story), Kevin Hageman (story), 4 more credits Â»\nStars: Will Arnett, Elizabeth Banks, Craig Berry\nGenres: Animation | Action | Comedy | Family\nCountry: Australia | USA | Denmark\nLanguage: English\n\n\n\n\nSource Own\n\nInfo: Got this vid from a guy who says it was a dvd-screener, to me seemed more like Webrip quality.. \nSo decided to go with Webrip tag..Vid was real washed out and very badly interlaced and the color was way off.. \ntook my time and ran tons of filters, came out real good. vid and audio are bye far better than whats out.. plus vid is complete.. Enjoy\n\nGeneral\n\nFormat                                   : Matroska\nFormat version                           : Version 2\nFile size                                : 1.40 GiB\nDuration                                 : 1h 40mn\nOverall bit rate mode                    : Variable\nOverall bit rate                         : 1 993 Kbps\nEncoded date                             : UTC 2014-05-01 02:46:15\nWriting application                      : mkvmerge v6.9.1 ('Blue Panther') 32bit built on Apr 18 2014 18:15:44\nWriting library                          : libebml v1.3.0 + libmatroska v1.4.1\n\nVideo\n\nID                                       : 1\nFormat                                   : AVC\nFormat/Info                              : Advanced Video Codec\nFormat profile                           : &lt;a class=&quot;__cf_email__&quot; href=&quot;/cdn-cgi/l/email-protection&quot; data-cfemail=&quot;652d0c020d2529514b54&quot;&gt;[email&amp;#160;protected]&lt;/a&gt;&lt;script cf-hash='f9e31' type=&quot;text/javascript&quot;&gt;\n/* &lt;![CDATA[ */!function(){try{var t=&quot;currentScript&quot;in document?document.currentScript:function(){for(var t=document.getElementsByTagName(&quot;script&quot;),e=t.length;e--;)if(t[e].getAttribute(&quot;cf-hash&quot;))return t[e]}();if(t&amp;&amp;t.previousSibling){var e,r,n,i,c=t.previousSibling,a=c.getAttribute(&quot;data-cfemail&quot;);if(a){for(e=&quot;&quot;,r=parseInt(a.substr(0,2),16),n=2;a.length-n;n+=2)i=parseInt(a.substr(n,2),16)^r,e+=String.fromCharCode(i);e=document.createTextNode(e),c.parentNode.replaceChild(e,c)}}}catch(u){}}();/* ]]&gt; */&lt;/script&gt;\nFormat settings, CABAC                   : Yes\nFormat settings, ReFrames                : 3 frames\nCodec ID                                 : V_MPEG4/ISO/AVC\nDuration                                 : 1h 40mn\nBit rate mode                            : Variable\nBit rate                                 : 1 799 Kbps\nMaximum bit rate                         : 40.0 Mbps\nWidth                                    : 720 pixels\nHeight                                   : 304 pixels\nDisplay aspect ratio                     : 2.35:1\nFrame rate mode                          : Constant\nFrame rate                               : 23.976 fps\nColor space                              : YUV\nChroma subsampling                       : 4:2:0\nBit depth                                : 8 bits\nScan type                                : Progressive\nBits/(Pixel*Frame)                       : 0.343\nStream size                              : 1.24 GiB (88%)\nWriting library                          : x264 core 142 r2409 d6b4e63\nDefault                                  : Yes\nForced                                   : No\nColor primaries                          : BT.709\nTransfer characteristics                 : BT.709\nMatrix coefficients                      : BT.709\n\nAudio\n\nID                                       : 2\nFormat                                   : AC-3\nFormat/Info                              : Audio Coding 3\nMode extension                           : CM (complete main)\nFormat settings, Endianness              : Big\nCodec ID                                 : A_AC3\nDuration                                 : 1h 40mn\nBit rate mode                            : Constant\nBit rate                                 : 192 Kbps\nChannel(s)                               : 2 channels\nChannel positions                        : Front: L R\nSampling rate                            : 48.0 KHz\nBit depth                                : 16 bits\nCompression mode                         : Lossy\nStream size                              : 138 MiB (10%)\nLanguage                                 : English\nDefault                                  : Yes\nForced                                   : No\n\n\n\nscreens\n &lt;a href=&quot;\nhttp://i.imgur.com/0drBNGg.png&quot; rel=&quot;nofollow&quot; target=&quot;_NEW&quot;&gt;\nhttp://i.imgur.com/0drBNGg.png&lt;/a&gt; &lt;a href=&quot;\nhttp://i.imgur.com/oLcJ4hq.png&quot; rel=&quot;nofollow&quot; target=&quot;_NEW&quot;&gt;\nhttp://i.imgur.com/oLcJ4hq.png&lt;/a&gt; &lt;a href=&quot;\nhttp://i.imgur.com/BUGZGFM.png&quot; rel=&quot;nofollow&quot; target=&quot;_NEW&quot;&gt;\nhttp://i.imgur.com/BUGZGFM.png&lt;/a&gt; &lt;a href=&quot;\nhttp://i.imgur.com/kLSR6qQ.png&quot; rel=&quot;nofollow&quot; target=&quot;_NEW&quot;&gt;\nhttp://i.imgur.com/kLSR6qQ.png&lt;/a&gt; &lt;a href=&quot;\nhttp://i.imgur.com/C7ryifb.png&quot; rel=&quot;nofollow&quot; target=&quot;_NEW&quot;&gt;\nhttp://i.imgur.com/C7ryifb.png&lt;/a&gt; &lt;a href=&quot;\nhttp://i.imgur.com/XKCdcvr.png&quot; rel=&quot;nofollow&quot; target=&quot;_NEW&quot;&gt;\nhttp://i.imgur.com/XKCdcvr.png&lt;/a&gt; &lt;a href=&quot;\nhttp://i.imgur.com/h239lnE.png&quot; rel=&quot;nofollow&quot; target=&quot;_NEW&quot;&gt;\nhttp://i.imgur.com/h239lnE.png&lt;/a&gt;","torrent":{"xt":"urn:btih:f0833de436dc1cc93508019a59ee8f32bbd0786b","amp;dn":"The+Lego+Movie+2014+Webrip+x264+AC3+TiTAN","amp;tr":["udp%3A%2F%2Ftracker.openbittorrent.com%3A80","udp%3A%2F%2Fopen.demonii.com%3A1337","udp%3A%2F%2Ftracker.coppersurfer.tk%3A6969","udp%3A%2F%2Fexodus.desync.com%3A6969"],"infoHash":"f0833de436dc1cc93508019a59ee8f32bbd0786b","infoHashBuffer":{"type":"Buffer","data":[240,131,61,228,54,220,28,201,53,8,1,154,89,238,143,50,187,208,120,107]},"announce":[],"urlList":[]}}